HIERARCHY
ROOT Hips
{
	OFFSET 0.00000 0.00000 0.00000
	CHANNELS 6 Xposition Yposition Zposition Zrotation Yrotation Xrotation 
	JOINT LHipJoint
	{
		OFFSET 0 0 0
		CHANNELS 3 Zrotation Yrotation Xrotation
		JOINT LeftUpLeg
		{
			OFFSET 1.26600 -1.82114 0.91038
			CHANNELS 3 Zrotation Yrotation Xrotation
			JOINT LeftLeg
			{
				OFFSET 2.50076 -6.87080 0.00000
				CHANNELS 3 Zrotation Yrotation Xrotation
				JOINT LeftFoot
				{
					OFFSET 2.57364 -7.07102 0.00000
					CHANNELS 3 Zrotation Yrotation Xrotation
					JOINT LeftToeBase
					{
						OFFSET 0.13572 -0.37290 1.97004
						CHANNELS 3 Zrotation Yrotation Xrotation
						End Site
						{
							OFFSET 0.00000 -0.00000 1.01383
						}
					}
				}
			}
		}
	}
	JOINT RHipJoint
	{
		OFFSET 0 0 0
		CHANNELS 3 Zrotation Yrotation Xrotation
		JOINT RightUpLeg
		{
			OFFSET -1.20803 -1.82114 0.91038
			CHANNELS 3 Zrotation Yrotation Xrotation
			JOINT RightLeg
			{
				OFFSET -2.54916 -7.00377 0.00000
				CHANNELS 3 Zrotation Yrotation Xrotation
				JOINT RightFoot
				{
					OFFSET -2.56374 -7.04382 0.00000
					CHANNELS 3 Zrotation Yrotation Xrotation
					JOINT RightToeBase
					{
						OFFSET -0.23520 -0.64621 2.09921
						CHANNELS 3 Zrotation Yrotation Xrotation
						End Site
						{
							OFFSET -0.00000 -0.00000 1.10065
						}
					}
				}
			}
		}
	}
	JOINT LowerBack
	{
		OFFSET 0 0 0
		CHANNELS 3 Zrotation Yrotation Xrotation
		JOINT Spine
		{
			OFFSET 0.05492 2.10797 -0.12074
			CHANNELS 3 Zrotation Yrotation Xrotation
			JOINT Spine1
			{
				OFFSET 0.04577 2.11592 -0.04483
				CHANNELS 3 Zrotation Yrotation Xrotation
				JOINT Neck
				{
					OFFSET 0 0 0
					CHANNELS 3 Zrotation Yrotation Xrotation
					JOINT Neck1
					{
						OFFSET -0.10759 1.80167 0.15770
						CHANNELS 3 Zrotation Yrotation Xrotation
						JOINT Head
						{
							OFFSET 0.09237 1.77509 -0.40848
							CHANNELS 3 Zrotation Yrotation Xrotation
							End Site
							{
								OFFSET 0.03805 1.84093 -0.15754
							}
						}
					}
				}
				JOINT LeftShoulder
				{
					OFFSET 0 0 0
					CHANNELS 3 Zrotation Yrotation Xrotation
					JOINT LeftArm
					{
						OFFSET 3.42372 1.09575 -0.28209
						CHANNELS 3 Zrotation Yrotation Xrotation
						JOINT LeftForeArm
						{
							OFFSET 4.95681 -0.00000 0.00000
							CHANNELS 3 Zrotation Yrotation Xrotation
							JOINT LeftHand
							{
								OFFSET 3.40915 -0.00000 0.00000
								CHANNELS 3 Zrotation Yrotation Xrotation
								JOINT LeftFingerBase
								{
									OFFSET 0 0 0
									CHANNELS 3 Zrotation Yrotation Xrotation
									JOINT LeftHandIndex1
									{
										OFFSET 0.61640 -0.00000 0.00000
										CHANNELS 3 Zrotation Yrotation Xrotation
										End Site
										{
											OFFSET 0.49696 -0.00000 0.00000
										}
									}
								}
								JOINT LThumb
								{
									OFFSET 0 0 0
									CHANNELS 3 Zrotation Yrotation Xrotation
									End Site
									{
										OFFSET 0.50455 -0.00000 0.50455
									}
								}
							}
						}
					}
				}
				JOINT RightShoulder
				{
					OFFSET 0 0 0
					CHANNELS 3 Zrotation Yrotation Xrotation
					JOINT RightArm
					{
						OFFSET -3.24731 1.15872 -0.32221
						CHANNELS 3 Zrotation Yrotation Xrotation
						JOINT RightForeArm
						{
							OFFSET -5.35200 -0.00000 0.00000
							CHANNELS 3 Zrotation Yrotation Xrotation
							JOINT RightHand
							{
								OFFSET -3.43721 -0.00000 -0.00000
								CHANNELS 3 Zrotation Yrotation Xrotation
								JOINT RightFingerBase
								{
									OFFSET 0 0 0
									CHANNELS 3 Zrotation Yrotation Xrotation
									JOINT RightHandIndex1
									{
										OFFSET -0.72009 -0.00000 0.00000
										CHANNELS 3 Zrotation Yrotation Xrotation
										End Site
										{
											OFFSET -0.58056 -0.00000 0.00000
										}
									}
								}
								JOINT RThumb
								{
									OFFSET 0 0 0
									CHANNELS 3 Zrotation Yrotation Xrotation
									End Site
									{
										OFFSET -0.58942 -0.00000 0.58942
									}
								}
							}
						}
					}
				}
			}
		}
	}
}
MOTION
Frames: 10
Frame Time: 0.0243902
0.00 0.00 0.00 0 0 0 0 0 0 -21 0 0 0 0 0 0 0 0 0 0 0 0 0 0 21 0 0 0 0 0 0 0 0 0 0 0 0 0 0 0 0 0 0 0 0 0 0 -16 0 0 21 0 0 11 0 0 0 -8 0 0 0 0 0 0 0 0 0 0 0 0 0 0 0 0 0 0 0 0 8 0 0 0 0 0 0 0 0 0 0 0 0 0 0 0 0 0
0.00 0.00 0.00 -171.6830 -2.0614 -178.5080 0.0000 0.0000 0.0000 -8.5979 -5.7371 -13.3005 5.8727 14.3038 44.4687 0.5184 -10.6378 -13.8606 0.1131 -2.1680 -5.9701 0.0000 0.0000 0.0000 32.9656 -3.8906 -4.7858 -2.0960 -9.0633 25.9936 -1.5421 0.6742 -23.2865 -0.5606 -4.7957 13.3269 5.1637 -0.0160 4.1690 4.5464 0.0201 0.0323 1.7987 -0.1583 -2.2977 -9.0713 1.8643 -14.1713 2.3937 1.1198 35.7687 2.4461 -1.6684 14.6248 0.0000 0.0000 0.0000 -91.2455 2.0890 24.7760 14.0282 -22.7749 -2.8390 -0.0000 -0.0000 2.3656 20.7707 16.0236 5.9767 -7.1250 0.0000 -0.0000 -6.6388 46.9448 -0.3200 0.0000 0.0000 0.0000 86.2222 -3.1595 22.9353 -14.8127 23.8846 -3.1497 0.0000 -0.0000 -6.4214 -21.5903 13.4761 -5.2690 7.1250 -0.0000 -0.0000 3.9650 -15.5514 2.7636
0.00 0.00 0.00 -169.9990 -1.2611 -176.7940 0.0000 0.0000 0.0000 -4.6814 -11.2562 -33.0080 3.0374 10.7553 31.4590 0.3656 -8.8662 -11.6094 0.5076 -4.5670 -12.6775 0.0000 0.0000 0.0000 34.7380 -7.6299 4.4115 -0.4037 -4.0790 11.2991 -1.0414 0.6148 -19.0972 -0.3466 -3.7826 10.4660 9.6876 1.8719 7.4654 3.8360 2.5487 3.7440 -1.6113 1.1060 0.0157 -9.3663 1.0625 -16.1208 3.3475 0.2270 35.9769 2.8221 -1.7732 15.2420 0.0000 -0.0000 0.0000 -92.7786 2.7342 19.4108 10.8684 -18.0862 -1.7348 -0.0000 -0.0000 8.6111 18.2272 15.9282 5.1640 -7.1250 0.0000 -0.0000 -8.9897 46.5042 -0.3364 0.0000 -0.0000 0.0000 84.1526 -0.6817 16.9032 -12.6282 20.7401 -2.3200 0.0000 0.0000 1.0383 -20.8743 13.4577 -5.0717 7.1250 -0.0000 -0.0000 4.4562 -15.6440 3.0990
0.00 0.00 0.00 -171.6480 2.5527 -176.5670 0.0000 0.0000 0.0000 -9.8875 -7.9474 -26.4272 2.5702 9.9644 28.8614 -0.1544 -8.1306 -1.5309 0.2231 3.0404 8.3911 0.0000 0.0000 0.0000 29.7622 -4.6803 9.4471 -1.7793 -8.3904 23.9064 -0.2903 -2.5271 -11.4264 -0.1609 2.5845 -7.1240 6.0646 1.8381 6.8696 2.9840 3.2539 3.5008 -0.5333 1.8515 -0.0774 -9.4478 0.6432 -15.2378 4.4679 -1.3638 36.5367 3.0217 -2.4505 15.4396 0.0000 0.0000 0.0000 -91.3801 4.8964 19.3929 12.8867 -21.1210 -2.4123 -0.0000 -0.0000 1.3702 21.6826 18.7443 7.2810 -7.1250 0.0000 -0.0000 -6.4583 49.9312 -0.7880 0.0000 0.0000 0.0000 85.8615 -0.8787 16.9307 -15.1086 24.2972 -3.2705 0.0000 -0.0000 -5.9369 -19.8106 14.2707 -5.0745 7.1250 -0.0000 -0.0000 5.2152 -14.8949 3.7151
0.00 0.00 0.00 -172.8240 2.2605 -177.6180 0.0000 0.0000 0.0000 -12.9106 -6.0277 -21.8006 2.1981 9.2671 26.6344 -0.2138 -9.3677 -1.4697 0.4860 4.4703 12.4036 0.0000 0.0000 0.0000 26.7118 -4.3404 1.5086 -4.8844 -13.2524 40.3207 0.0209 -2.9384 0.4531 -0.0548 1.5101 -4.1535 4.6699 1.5696 6.7374 2.4829 2.7500 3.7538 -0.2330 1.5799 0.1890 -9.2875 0.5689 -15.5061 5.0257 -1.8014 36.7992 3.1609 -2.5663 15.6750 -0.0000 -0.0000 0.0000 -89.7382 3.8606 21.7898 14.6876 -23.7091 -3.0992 -0.0000 -0.0000 0.8785 20.9944 18.2654 6.8583 -7.1250 0.0000 -0.0000 -6.9948 49.3214 -0.7487 -0.0000 -0.0000 0.0000 86.0481 -0.5750 17.6684 -17.2316 27.1620 -4.1925 0.0000 -0.0000 -6.7382 -18.4708 13.7061 -4.5253 7.1250 -0.0000 -0.0000 6.1141 -15.6148 4.2674
0.00 0.00 0.00 -174.4380 2.4124 -178.5640 0.0000 0.0000 0.0000 -15.7813 -4.1393 -17.3617 1.7140 8.2431 23.4548 -0.2480 -9.9254 -1.2861 0.9000 6.0460 16.9180 0.0000 0.0000 0.0000 23.7736 -1.8138 -6.5306 -9.1116 -16.8790 56.4753 -0.2043 -5.0583 8.2604 -0.3286 -3.6841 10.1895 2.3671 1.3026 7.2211 2.2034 2.2179 3.3880 0.7706 1.2457 -0.5528 -9.1180 0.9257 -14.6367 4.6719 -1.6027 37.2479 2.9913 -2.6334 15.6602 0.0000 -0.0000 0.0000 -88.3142 3.3689 24.4057 16.1460 -25.7182 -3.7091 -0.0000 0.0000 -1.5715 22.2369 13.3321 5.3858 -7.1250 0.0000 -0.0000 -4.7298 44.2890 0.0832 0.0000 -0.0000 0.0000 85.6136 -1.0668 19.4064 -19.7256 30.3103 -5.3922 0.0000 -0.0000 -8.6098 -20.0166 12.9705 -4.6745 7.1250 -0.0000 -0.0000 5.0300 -16.2411 3.4359
0.00 0.00 0.00 -175.8990 2.9267 -179.5980 0.0000 0.0000 0.0000 -17.5545 -4.4246 -12.4818 1.3947 7.4714 21.1197 -0.1724 -8.7276 -1.8475 2.4333 9.7155 28.0603 0.0000 0.0000 0.0000 21.1138 0.3219 -13.9283 -13.6871 -19.0164 71.2467 -0.0264 -3.0433 3.3526 -0.1099 -2.1376 5.8861 0.7723 1.1370 7.9669 1.7028 1.8992 3.6451 1.1573 1.0751 -0.7334 -9.0090 1.1950 -15.1633 4.4150 -1.1268 37.5978 2.9451 -2.4821 15.9143 -0.0000 -0.0000 0.0000 -87.1661 0.4612 24.2594 16.2283 -25.8293 -3.7449 -0.0000 0.0000 -3.1056 22.6967 16.2201 6.6635 -7.1250 0.0000 -0.0000 -4.8643 47.4219 -0.2914 -0.0000 -0.0000 0.0000 85.5870 0.1126 19.4574 -20.6770 31.4494 -5.8805 0.0000 -0.0000 -8.6122 -21.1273 14.8594 -5.6593 7.1250 -0.0000 -0.0000 4.3456 -14.1345 3.1621
0.00 0.00 0.00 -176.7240 3.0224 -180.8200 0.0000 0.0000 0.0000 -19.4694 -0.9551 -8.4348 0.8219 5.7846 16.1606 -0.2356 -9.3981 -0.6768 1.2588 7.1123 20.0485 0.0000 0.0000 0.0000 18.3639 2.6297 -24.5704 -19.8408 -19.9994 89.5344 -0.0531 0.3907 -4.2284 -0.0102 -0.6525 1.7931 -0.2647 0.7473 8.9407 1.5469 1.3209 3.6794 1.6116 0.7840 -1.2426 -7.9791 -3.0440 -14.5583 2.1850 1.4956 38.1065 3.0209 1.1258 16.0170 0.0000 -0.0000 0.0000 -86.6640 -1.6509 21.1938 17.1941 -27.1130 -4.1754 -0.0000 0.0000 -3.4522 22.9811 19.2993 7.9787 -7.1250 0.0000 -0.0000 -5.3339 50.7292 -0.7549 0.0000 -0.0000 0.0000 85.1193 0.6271 19.5166 -21.8449 32.8013 -6.5016 0.0000 -0.0000 -9.5536 -19.7961 15.4897 -5.4909 7.1250 -0.0000 -0.0000 5.2740 -13.6185 3.9008
0.00 0.00 0.00 -177.7510 2.6704 -181.8520 0.0000 0.0000 0.0000 -21.1152 1.2507 -3.5073 0.3635 3.8730 10.7196 -0.2488 -9.1883 0.5603 1.0448 6.5004 18.2433 0.0000 0.0000 0.0000 14.5184 2.9921 -36.6996 -25.2559 -19.3244 105.5355 -0.1851 4.8607 -7.8704 -0.0520 -1.4714 4.0470 -0.9010 0.3549 9.5275 0.9991 0.7803 4.1108 1.4548 0.5301 -1.1006 -7.4575 -2.9470 -15.3136 1.8708 1.6894 38.5418 2.8565 1.2145 16.4181 0.0000 0.0000 0.0000 -85.5643 -4.6207 17.8151 17.5308 -27.5521 -4.3300 -0.0000 0.0000 -3.3467 21.0712 21.2420 7.9468 -7.1250 0.0000 -0.0000 -7.8299 52.4278 -1.4387 0.0000 0.0000 0.0000 84.9605 1.0163 19.8786 -23.4042 34.5279 -7.3661 0.0000 -0.0000 -11.0134 -20.1153 14.4506 -5.2221 7.1250 -0.0000 -0.0000 5.0146 -14.6747 3.5947
0.00 0.00 0.00 -178.4300 0.6973 -183.3790 0.0000 0.0000 0.0000 -22.1326 3.1025 5.6413 0.0000 -0.0000 -0.0000 -0.1535 -7.0432 3.9311 0.9640 6.2516 17.5161 0.0000 0.0000 0.0000 10.7394 -0.4427 -54.4113 -30.2454 -17.2695 121.3349 -0.5856 9.3317 -14.1860 -0.3987 4.0542 -11.2293 -2.5692 -0.8343 11.0658 1.4298 -0.9040 4.2568 3.0372 -0.2952 -1.6896 -7.7095 -2.4187 -14.4298 1.0614 2.8149 38.1323 2.7066 1.5580 15.9480 0.0000 -0.0000 0.0000 -85.5302 -5.9720 17.0407 18.7666 -29.1277 -4.9167 -0.0000 0.0000 -6.0852 23.8983 23.6670 10.0858 -7.1250 0.0000 -0.0000 -5.7727 55.4992 -1.4912 0.0000 -0.0000 0.0000 83.1396 0.2701 21.7453 -24.3446 35.5266 -7.9059 0.0000 -0.0000 -11.8426 -20.6576 14.6773 -5.4568 7.1250 -0.0000 -0.0000 4.6556 -14.3785 3.3650
